<svg width="1050" height="840" viewBox="0,0,1050,840" xmlns="http://www.w3.org/2000/svg"><style xmlns="http://www.w3.org/1999/xhtml">
                line { stroke: #999; stroke-opacity: 0.6; stroke-width: 2px; }
                circle { stroke: #fff; stroke-width: 1.5px; }
                text { font-size: 10px; font-family: Arial, sans-serif; }
            </style><g transform="translate(-304.3308459216571,-219.44274406607678) scale(1.4339552480158273)"><rect width="1050" height="840" fill="none" stroke="#eee"/><defs><marker id="arrowhead" viewBox="0 -5 10 10" refX="20" refY="0" orient="auto" markerWidth="6" markerHeight="6"><path d="M0,-5L10,0L0,5" fill="#999"/></marker></defs><g class="grid"><line x1="0" y1="0" x2="0" y2="840" stroke="#f5f5f5" stroke-width="1"/><line x1="50" y1="0" x2="50" y2="840" stroke="#f5f5f5" stroke-width="1"/><line x1="100" y1="0" x2="100" y2="840" stroke="#f5f5f5" stroke-width="1"/><line x1="150" y1="0" x2="150" y2="840" stroke="#f5f5f5" stroke-width="1"/><line x1="200" y1="0" x2="200" y2="840" stroke="#f5f5f5" stroke-width="1"/><line x1="250" y1="0" x2="250" y2="840" stroke="#f5f5f5" stroke-width="1"/><line x1="300" y1="0" x2="300" y2="840" stroke="#f5f5f5" stroke-width="1"/><line x1="350" y1="0" x2="350" y2="840" stroke="#f5f5f5" stroke-width="1"/><line x1="400" y1="0" x2="400" y2="840" stroke="#f5f5f5" stroke-width="1"/><line x1="450" y1="0" x2="450" y2="840" stroke="#f5f5f5" stroke-width="1"/><line x1="500" y1="0" x2="500" y2="840" stroke="#f5f5f5" stroke-width="1"/><line x1="550" y1="0" x2="550" y2="840" stroke="#f5f5f5" stroke-width="1"/><line x1="600" y1="0" x2="600" y2="840" stroke="#f5f5f5" stroke-width="1"/><line x1="650" y1="0" x2="650" y2="840" stroke="#f5f5f5" stroke-width="1"/><line x1="700" y1="0" x2="700" y2="840" stroke="#f5f5f5" stroke-width="1"/><line x1="750" y1="0" x2="750" y2="840" stroke="#f5f5f5" stroke-width="1"/><line x1="800" y1="0" x2="800" y2="840" stroke="#f5f5f5" stroke-width="1"/><line x1="850" y1="0" x2="850" y2="840" stroke="#f5f5f5" stroke-width="1"/><line x1="900" y1="0" x2="900" y2="840" stroke="#f5f5f5" stroke-width="1"/><line x1="950" y1="0" x2="950" y2="840" stroke="#f5f5f5" stroke-width="1"/><line x1="1000" y1="0" x2="1000" y2="840" stroke="#f5f5f5" stroke-width="1"/><line x1="0" y1="0" x2="1050" y2="0" stroke="#f5f5f5" stroke-width="1"/><line x1="0" y1="0" x2="0" y2="840" stroke="#f5f5f5" stroke-width="1"/><line x1="50" y1="0" x2="50" y2="840" stroke="#f5f5f5" stroke-width="1"/><line x1="100" y1="0" x2="100" y2="840" stroke="#f5f5f5" stroke-width="1"/><line x1="150" y1="0" x2="150" y2="840" stroke="#f5f5f5" stroke-width="1"/><line x1="200" y1="0" x2="200" y2="840" stroke="#f5f5f5" stroke-width="1"/><line x1="250" y1="0" x2="250" y2="840" stroke="#f5f5f5" stroke-width="1"/><line x1="300" y1="0" x2="300" y2="840" stroke="#f5f5f5" stroke-width="1"/><line x1="350" y1="0" x2="350" y2="840" stroke="#f5f5f5" stroke-width="1"/><line x1="400" y1="0" x2="400" y2="840" stroke="#f5f5f5" stroke-width="1"/><line x1="450" y1="0" x2="450" y2="840" stroke="#f5f5f5" stroke-width="1"/><line x1="500" y1="0" x2="500" y2="840" stroke="#f5f5f5" stroke-width="1"/><line x1="550" y1="0" x2="550" y2="840" stroke="#f5f5f5" stroke-width="1"/><line x1="600" y1="0" x2="600" y2="840" stroke="#f5f5f5" stroke-width="1"/><line x1="650" y1="0" x2="650" y2="840" stroke="#f5f5f5" stroke-width="1"/><line x1="700" y1="0" x2="700" y2="840" stroke="#f5f5f5" stroke-width="1"/><line x1="750" y1="0" x2="750" y2="840" stroke="#f5f5f5" stroke-width="1"/><line x1="800" y1="0" x2="800" y2="840" stroke="#f5f5f5" stroke-width="1"/><line x1="850" y1="0" x2="850" y2="840" stroke="#f5f5f5" stroke-width="1"/></g><g><line stroke="#999" stroke-opacity="0.6" stroke-width="1.5" marker-end="url(#arrowhead)" x1="611.0073282472142" y1="486.9857957997894" x2="585.2134951727182" y2="598.5052381678092"/><line stroke="#999" stroke-opacity="0.6" stroke-width="1.5" marker-end="url(#arrowhead)" x1="611.0073282472142" y1="486.9857957997894" x2="326.73237153982177" y2="360.58986652416496"/><line stroke="#999" stroke-opacity="0.6" stroke-width="1.5" marker-end="url(#arrowhead)" x1="611.0073282472142" y1="486.9857957997894" x2="748.9991039587603" y2="339.2550577853376"/><line stroke="#999" stroke-opacity="0.6" stroke-width="1.5" marker-end="url(#arrowhead)" x1="611.0073282472142" y1="486.9857957997894" x2="387.30383125943627" y2="555.1860363227356"/><line stroke="#999" stroke-opacity="0.6" stroke-width="1.5" marker-end="url(#arrowhead)" x1="611.0073282472142" y1="486.9857957997894" x2="552.2952193741462" y2="293.63298660796363"/><line stroke="#999" stroke-opacity="0.6" stroke-width="1.5" marker-end="url(#arrowhead)" x1="611.0073282472142" y1="486.9857957997894" x2="694.0754856397182" y2="564.9279862166874"/><line stroke="#999" stroke-opacity="0.6" stroke-width="1.5" marker-end="url(#arrowhead)" x1="611.0073282472142" y1="486.9857957997894" x2="300.0857861185541" y2="475.09903847158813"/><line stroke="#999" stroke-opacity="0.6" stroke-width="1.5" marker-end="url(#arrowhead)" x1="611.0073282472142" y1="486.9857957997894" x2="636.8632790286807" y2="375.429606090644"/><line stroke="#999" stroke-opacity="0.6" stroke-width="1.5" marker-end="url(#arrowhead)" x1="611.0073282472142" y1="486.9857957997894" x2="473.14436269335386" y2="634.677278881788"/><line stroke="#999" stroke-opacity="0.6" stroke-width="1.5" marker-end="url(#arrowhead)" x1="611.0073282472142" y1="486.9857957997894" x2="440.2861654818491" y2="327.17542011142484"/><line stroke="#999" stroke-opacity="0.6" stroke-width="1.5" marker-end="url(#arrowhead)" x1="611.0073282472142" y1="486.9857957997894" x2="807.3148343125094" y2="532.4057534995109"/><line stroke="#999" stroke-opacity="0.6" stroke-width="1.5" marker-end="url(#arrowhead)" x1="408.9356823276357" y1="440.08788911670365" x2="546.4646831618921" y2="292.28439926370476"/><line stroke="#999" stroke-opacity="0.6" stroke-width="1.5" marker-end="url(#arrowhead)" x1="408.9356823276357" y1="440.08788911670365" x2="270.8894066615686" y2="587.3324719698539"/><line stroke="#999" stroke-opacity="0.6" stroke-width="1.5" marker-end="url(#arrowhead)" x1="408.9356823276357" y1="440.08788911670365" x2="299.8325863706345" y2="473.13068116797103"/><line stroke="#999" stroke-opacity="0.6" stroke-width="1.5" marker-end="url(#arrowhead)" x1="523.6351493392765" y1="404.89531621493984" x2="576.1196141151459" y2="176.8360826594839"/><line stroke="#999" stroke-opacity="0.6" stroke-width="1.5" marker-end="url(#arrowhead)" x1="523.6351493392765" y1="404.89531621493984" x2="582.1270454207844" y2="598.607051284964"/><line stroke="#999" stroke-opacity="0.6" stroke-width="1.5" marker-end="url(#arrowhead)" x1="523.6351493392765" y1="404.89531621493984" x2="327.0959723787346" y2="359.5024278317327"/><line stroke="#999" stroke-opacity="0.6" stroke-width="1.5" marker-end="url(#arrowhead)" x1="523.6351493392765" y1="404.89531621493984" x2="719.7683683475777" y2="450.35115206266653"/><line stroke="#999" stroke-opacity="0.6" stroke-width="1.5" marker-end="url(#arrowhead)" x1="523.6351493392765" y1="404.89531621493984" x2="352.47333077306394" y2="245.3654727904289"/><line stroke="#999" stroke-opacity="0.6" stroke-width="1.5" marker-end="url(#arrowhead)" x1="523.6351493392765" y1="404.89531621493984" x2="385.6610905288027" y2="552.5518014228032"/><line stroke="#999" stroke-opacity="0.6" stroke-width="1.5" marker-end="url(#arrowhead)" x1="523.6351493392765" y1="404.89531621493984" x2="661.1833107877117" y2="257.1315026298495"/><line stroke="#999" stroke-opacity="0.6" stroke-width="1.5" marker-end="url(#arrowhead)" x1="523.6351493392765" y1="404.89531621493984" x2="694.0768575222256" y2="564.9265245999791"/><line stroke="#999" stroke-opacity="0.6" stroke-width="1.5" marker-end="url(#arrowhead)" x1="523.6351493392765" y1="404.89531621493984" x2="497.77479446136255" y2="516.3937882449027"/><line stroke="#999" stroke-opacity="0.6" stroke-width="1.5" marker-end="url(#arrowhead)" x1="523.6351493392765" y1="404.89531621493984" x2="299.82942188189213" y2="473.1202664913558"/><line stroke="#999" stroke-opacity="0.6" stroke-width="1.5" marker-end="url(#arrowhead)" x1="523.6351493392765" y1="404.89531621493984" x2="464.5630465393934" y2="211.8597936648466"/></g><g><g style="touch-action: none;" transform="translate(611.0073282472142, 486.9857957997894)"><circle r="10" fill="rgb(8, 48, 107)" stroke="#f5f5f5" stroke-width="1.5"/><rect rx="3" ry="3" x="12" y="-9" fill="white" opacity="0.8" stroke="#eee" stroke-width="0.5" width="25.5" height="18"/><text font-size="12" font-family="Arial, sans-serif" fill="#000" x="15" y="3">app</text></g><g style="touch-action: none;" transform="translate(408.9356823276357, 440.08788911670365)"><circle r="10" fill="rgb(75, 151, 201)" stroke="#f5f5f5" stroke-width="1.5"/><rect rx="3" ry="3" x="12" y="-9" fill="white" opacity="0.8" stroke="#eee" stroke-width="0.5" width="45" height="18"/><text font-size="12" font-family="Arial, sans-serif" fill="#000" x="15" y="3">config</text></g><g style="touch-action: none;" transform="translate(523.6351493392765, 404.89531621493984)"><circle r="10" fill="rgb(8, 48, 107)" stroke="#f5f5f5" stroke-width="1.5"/><rect rx="3" ry="3" x="12" y="-9" fill="white" opacity="0.8" stroke="#eee" stroke-width="0.5" width="45" height="18"/><text font-size="12" font-family="Arial, sans-serif" fill="#000" x="15" y="3">models</text></g><g style="touch-action: none;" transform="translate(583.8614230296698, 604.3509118603781)"><circle r="6" fill="#f0c297" stroke="#f5f5f5" stroke-width="1.5"/><rect rx="3" ry="3" x="12" y="-9" fill="white" opacity="0.8" stroke="#eee" stroke-width="0.5" width="51.5" height="18"/><text font-size="12" font-family="Arial, sans-serif" fill="#000" x="15" y="3">sqlite3</text></g><g style="touch-action: none;" transform="translate(321.249870959298, 358.1522062967017)"><circle r="6" fill="#f0c297" stroke="#f5f5f5" stroke-width="1.5"/><rect rx="3" ry="3" x="12" y="-9" fill="white" opacity="0.8" stroke="#eee" stroke-width="0.5" width="19" height="18"/><text font-size="12" font-family="Arial, sans-serif" fill="#000" x="15" y="3">io</text></g><g style="touch-action: none;" transform="translate(753.0947540981017, 334.87035141704877)"><circle r="6" fill="#f0c297" stroke="#f5f5f5" stroke-width="1.5"/><rect rx="3" ry="3" x="12" y="-9" fill="white" opacity="0.8" stroke="#eee" stroke-width="0.5" width="45" height="18"/><text font-size="12" font-family="Arial, sans-serif" fill="#000" x="15" y="3">models</text></g><g style="touch-action: none;" transform="translate(381.56462164847807, 556.9357428814146)"><circle r="6" fill="#f0c297" stroke="#f5f5f5" stroke-width="1.5"/><rect rx="3" ry="3" x="12" y="-9" fill="white" opacity="0.8" stroke="#eee" stroke-width="0.5" width="38.5" height="18"/><text font-size="12" font-family="Arial, sans-serif" fill="#000" x="15" y="3">flask</text></g><g style="touch-action: none;" transform="translate(550.5519023647446, 287.89183290816334)"><circle r="6" fill="#f0c297" stroke="#f5f5f5" stroke-width="1.5"/><rect rx="3" ry="3" x="12" y="-9" fill="white" opacity="0.8" stroke="#eee" stroke-width="0.5" width="51.5" height="18"/><text font-size="12" font-family="Arial, sans-serif" fill="#000" x="15" y="3">logging</text></g><g style="touch-action: none;" transform="translate(698.4509793070308, 569.0334770725178)"><circle r="6" fill="#f0c297" stroke="#f5f5f5" stroke-width="1.5"/><rect rx="3" ry="3" x="12" y="-9" fill="white" opacity="0.8" stroke="#eee" stroke-width="0.5" width="58" height="18"/><text font-size="12" font-family="Arial, sans-serif" fill="#000" x="15" y="3">datetime</text></g><g style="touch-action: none;" transform="translate(294.0901660838591, 474.8698215447178)"><circle r="6" fill="#f0c297" stroke="#f5f5f5" stroke-width="1.5"/><rect rx="3" ry="3" x="12" y="-9" fill="white" opacity="0.8" stroke="#eee" stroke-width="0.5" width="19" height="18"/><text font-size="12" font-family="Arial, sans-serif" fill="#000" x="15" y="3">os</text></g><g style="touch-action: none;" transform="translate(638.2180177318545, 369.5845497995444)"><circle r="6" fill="#f0c297" stroke="#f5f5f5" stroke-width="1.5"/><rect rx="3" ry="3" x="12" y="-9" fill="white" opacity="0.8" stroke="#eee" stroke-width="0.5" width="123" height="18"/><text font-size="12" font-family="Arial, sans-serif" fill="#000" x="15" y="3">flask_jwt_extended</text></g><g style="touch-action: none;" transform="translate(469.05017415546087, 639.0633500412865)"><circle r="6" fill="#f0c297" stroke="#f5f5f5" stroke-width="1.5"/><rect rx="3" ry="3" x="12" y="-9" fill="white" opacity="0.8" stroke="#eee" stroke-width="0.5" width="45" height="18"/><text font-size="12" font-family="Arial, sans-serif" fill="#000" x="15" y="3">dotenv</text></g><g style="touch-action: none;" transform="translate(435.9058618285444, 323.0750616021179)"><circle r="6" fill="#f0c297" stroke="#f5f5f5" stroke-width="1.5"/><rect rx="3" ry="3" x="12" y="-9" fill="white" opacity="0.8" stroke="#eee" stroke-width="0.5" width="71" height="18"/><text font-size="12" font-family="Arial, sans-serif" fill="#000" x="15" y="3">flask_cors</text></g><g style="touch-action: none;" transform="translate(813.1604091905817, 533.758252795204)"><circle r="6" fill="#f0c297" stroke="#f5f5f5" stroke-width="1.5"/><rect rx="3" ry="3" x="12" y="-9" fill="white" opacity="0.8" stroke="#eee" stroke-width="0.5" width="45" height="18"/><text font-size="12" font-family="Arial, sans-serif" fill="#000" x="15" y="3">config</text></g><g style="touch-action: none;" transform="translate(266.78568902050154, 591.7096287550737)"><circle r="6" fill="#f0c297" stroke="#f5f5f5" stroke-width="1.5"/><rect rx="3" ry="3" x="12" y="-9" fill="white" opacity="0.8" stroke="#eee" stroke-width="0.5" width="51.5" height="18"/><text font-size="12" font-family="Arial, sans-serif" fill="#000" x="15" y="3">secrets</text></g><g style="touch-action: none;" transform="translate(577.4652512605469, 170.98892431778347)"><circle r="6" fill="#f0c297" stroke="#f5f5f5" stroke-width="1.5"/><rect rx="3" ry="3" x="12" y="-9" fill="white" opacity="0.8" stroke="#eee" stroke-width="0.5" width="58" height="18"/><text font-size="12" font-family="Arial, sans-serif" fill="#000" x="15" y="3">werkzeug</text></g><g style="touch-action: none;" transform="translate(725.6134440884624, 451.70580684648434)"><circle r="6" fill="#f0c297" stroke="#f5f5f5" stroke-width="1.5"/><rect rx="3" ry="3" x="12" y="-9" fill="white" opacity="0.8" stroke="#eee" stroke-width="0.5" width="25.5" height="18"/><text font-size="12" font-family="Arial, sans-serif" fill="#000" x="15" y="3">PIL</text></g><g style="touch-action: none;" transform="translate(348.0841709581985, 241.27459560826242)"><circle r="6" fill="#f0c297" stroke="#f5f5f5" stroke-width="1.5"/><rect rx="3" ry="3" x="12" y="-9" fill="white" opacity="0.8" stroke="#eee" stroke-width="0.5" width="45" height="18"/><text font-size="12" font-family="Arial, sans-serif" fill="#000" x="15" y="3">imghdr</text></g><g style="touch-action: none;" transform="translate(665.2714232134903, 252.7397675747495)"><circle r="6" fill="#f0c297" stroke="#f5f5f5" stroke-width="1.5"/><rect rx="3" ry="3" x="12" y="-9" fill="white" opacity="0.8" stroke="#eee" stroke-width="0.5" width="25.5" height="18"/><text font-size="12" font-family="Arial, sans-serif" fill="#000" x="15" y="3">app</text></g><g style="touch-action: none;" transform="translate(496.4191711659434, 522.2386394389808)"><circle r="6" fill="#f0c297" stroke="#f5f5f5" stroke-width="1.5"/><rect rx="3" ry="3" x="12" y="-9" fill="white" opacity="0.8" stroke="#eee" stroke-width="0.5" width="32" height="18"/><text font-size="12" font-family="Arial, sans-serif" fill="#000" x="15" y="3">uuid</text></g><g style="touch-action: none;" transform="translate(462.80731540096144, 206.12242421800596)"><circle r="6" fill="#f0c297" stroke="#f5f5f5" stroke-width="1.5"/><rect rx="3" ry="3" x="12" y="-9" fill="white" opacity="0.8" stroke="#eee" stroke-width="0.5" width="58" height="18"/><text font-size="12" font-family="Arial, sans-serif" fill="#000" x="15" y="3">werkzeug</text></g></g></g></svg>